<svg xmlns="http://www.w3.org/2000/svg" version="1.1" xmlns:xlink="http://www.w3.org/1999/xlink" xmlns:svgjs="http://svgjs.dev/svgjs" width="1500" height="598" viewBox="0 0 1500 598"><g transform="matrix(1,0,0,1,-0.9090909090909918,-0.13107660066606286)"><svg viewBox="0 0 396 158" data-background-color="#27374d" preserveAspectRatio="xMidYMid meet" height="598" width="1500" xmlns="http://www.w3.org/2000/svg" xmlns:xlink="http://www.w3.org/1999/xlink"><g id="tight-bounds" transform="matrix(1,0,0,1,0.2400000000000091,0.034632279105750285)"><svg viewBox="0 0 395.52 157.9307354417885" height="157.9307354417885" width="395.52"><g><svg viewBox="0 0 395.52 157.9307354417885" height="157.9307354417885" width="395.52"><g transform="matrix(1,0,0,1,0,127.33456964893064)"><svg viewBox="0 0 395.52 30.596165792857846" height="30.596165792857846" width="395.52"><g id="textblocktransform"><svg viewBox="0 0 395.52 30.596165792857846" height="30.596165792857846" width="395.52" id="textblock"><g><svg viewBox="0 0 395.52 30.596165792857846" height="30.596165792857846" width="395.52"><g transform="matrix(1,0,0,1,0,0)"><svg width="395.52" viewBox="0.44 -37.7 493.56 38.190000000000005" height="30.596165792857846" data-palette-color="#dde6ed"><path d="M17.94-28L17.94 0 10.96 0 10.96-28 0.44-28 0.44-35.01 28.44-35.01 28.44-28 17.94-28ZM50.24-21.46L37.74-6.4Q38.13-6.27 38.52-6.24 38.91-6.2 39.3-6.2L39.3-6.2Q40.28-6.2 41.18-6.47 42.09-6.74 42.88-7.24 43.67-7.74 44.3-8.46 44.92-9.18 45.31-10.06L45.31-10.06 50.19-5.15Q49.27-3.83 48.06-2.78 46.85-1.73 45.44-1 44.04-0.27 42.49 0.11 40.94 0.49 39.3 0.49L39.3 0.49Q36.55 0.49 34.12-0.54 31.69-1.56 29.87-3.39 28.05-5.22 27-7.75 25.95-10.28 25.95-13.31L25.95-13.31Q25.95-16.41 27-18.97 28.05-21.53 29.87-23.34 31.69-25.15 34.12-26.15 36.55-27.15 39.3-27.15L39.3-27.15Q40.94-27.15 42.5-26.76 44.06-26.37 45.47-25.63 46.87-24.9 48.09-23.84 49.31-22.78 50.24-21.46L50.24-21.46ZM33.4-9.84L41.16-20.14Q40.7-20.31 40.24-20.36 39.79-20.41 39.3-20.41L39.3-20.41Q37.94-20.41 36.73-19.91 35.52-19.41 34.63-18.48 33.74-17.55 33.23-16.25 32.71-14.94 32.71-13.31L32.71-13.31Q32.71-12.94 32.75-12.48 32.79-12.01 32.87-11.54 32.96-11.06 33.08-10.62 33.2-10.18 33.4-9.84L33.4-9.84ZM78.71-26.1L78.71 0 77.09 0 74.51-3.59Q73.55-2.73 72.49-1.99 71.43-1.25 70.26-0.7 69.09-0.15 67.85 0.17 66.62 0.49 65.35 0.49L65.35 0.49Q62.59 0.49 60.16-0.44 57.73-1.37 55.92-3.14 54.1-4.91 53.05-7.47 52-10.03 52-13.31L52-13.31Q52-16.36 53.05-18.91 54.1-21.46 55.92-23.29 57.73-25.12 60.16-26.14 62.59-27.15 65.35-27.15L65.35-27.15Q66.62-27.15 67.87-26.83 69.11-26.51 70.28-25.95 71.45-25.39 72.52-24.63 73.58-23.88 74.51-23L74.51-23 77.09-26.1 78.71-26.1ZM71.99-13.31L71.99-13.31Q71.99-14.67 71.47-15.95 70.94-17.24 70.04-18.23 69.14-19.21 67.93-19.81 66.72-20.41 65.35-20.41L65.35-20.41Q63.98-20.41 62.78-19.95 61.57-19.48 60.68-18.58 59.79-17.68 59.27-16.35 58.76-15.01 58.76-13.31L58.76-13.31Q58.76-11.6 59.27-10.27 59.79-8.94 60.68-8.03 61.57-7.13 62.78-6.67 63.98-6.2 65.35-6.2L65.35-6.2Q66.72-6.2 67.93-6.8 69.14-7.4 70.04-8.39 70.94-9.38 71.47-10.66 71.99-11.94 71.99-13.31ZM106.63-20.95L106.63-20.95 101.75-16.04Q101.38-17.07 100.75-17.88 100.11-18.7 99.32-19.26 98.53-19.82 97.6-20.12 96.67-20.41 95.7-20.41L95.7-20.41Q94.33-20.41 93.12-19.85 91.91-19.29 91.02-18.27 90.13-17.26 89.62-15.87 89.1-14.48 89.1-12.79L89.1-12.79Q89.1-11.43 89.62-10.23 90.13-9.03 91.02-8.13 91.91-7.23 93.12-6.71 94.33-6.2 95.7-6.2L95.7-6.2Q96.67-6.2 97.58-6.47 98.48-6.74 99.27-7.24 100.07-7.74 100.69-8.46 101.31-9.18 101.7-10.06L101.7-10.06 106.58-5.15Q105.66-3.83 104.45-2.78 103.24-1.73 101.84-1 100.43-0.27 98.88 0.11 97.33 0.49 95.7 0.49L95.7 0.49Q92.94 0.49 90.51-0.55 88.08-1.59 86.26-3.39 84.44-5.2 83.39-7.62 82.34-10.03 82.34-12.79L82.34-12.79Q82.34-15.8 83.39-18.41 84.44-21.02 86.26-22.96 88.08-24.9 90.51-26.03 92.94-27.15 95.7-27.15L95.7-27.15Q97.33-27.15 98.91-26.73 100.48-26.32 101.91-25.52 103.34-24.73 104.55-23.58 105.75-22.44 106.63-20.95ZM116.54-14.94L116.54 0 109.88 0 109.88-36.55 116.54-36.55 116.54-25Q117.74-25.9 119.01-26.28 120.28-26.66 121.6-26.66L121.6-26.66Q124.01-26.66 126.14-25.74 128.26-24.83 129.84-23.23 131.41-21.63 132.33-19.49 133.24-17.36 133.24-14.94L133.24-14.94 133.24 0 126.53 0 126.53-14.94 126.58-14.94Q126.58-15.97 126.19-16.88 125.8-17.8 125.11-18.48 124.43-19.17 123.53-19.56 122.62-19.95 121.6-19.95L121.6-19.95Q120.55-19.95 119.62-19.56 118.69-19.17 118.01-18.48 117.32-17.8 116.93-16.88 116.54-15.97 116.54-14.94L116.54-14.94ZM160.88-21.46L148.38-6.4Q148.77-6.27 149.16-6.24 149.55-6.2 149.94-6.2L149.94-6.2Q150.92-6.2 151.82-6.47 152.72-6.74 153.52-7.24 154.31-7.74 154.93-8.46 155.55-9.18 155.94-10.06L155.94-10.06 160.83-5.15Q159.9-3.83 158.69-2.78 157.48-1.73 156.08-1 154.68-0.27 153.12 0.11 151.57 0.49 149.94 0.49L149.94 0.49Q147.18 0.49 144.75-0.54 142.32-1.56 140.5-3.39 138.68-5.22 137.63-7.75 136.58-10.28 136.58-13.31L136.58-13.31Q136.58-16.41 137.63-18.97 138.68-21.53 140.5-23.34 142.32-25.15 144.75-26.15 147.18-27.15 149.94-27.15L149.94-27.15Q151.57-27.15 153.14-26.76 154.7-26.37 156.1-25.63 157.51-24.9 158.73-23.84 159.95-22.78 160.88-21.46L160.88-21.46ZM144.03-9.84L151.79-20.14Q151.33-20.31 150.88-20.36 150.43-20.41 149.94-20.41L149.94-20.41Q148.57-20.41 147.36-19.91 146.15-19.41 145.26-18.48 144.37-17.55 143.86-16.25 143.35-14.94 143.35-13.31L143.35-13.31Q143.35-12.94 143.38-12.48 143.42-12.01 143.51-11.54 143.59-11.06 143.71-10.62 143.84-10.18 144.03-9.84L144.03-9.84ZM170.88-14.4L170.88 0 164.22 0 164.22-26.15 165.83-26.15 168.03-23.05Q169.64-24.51 171.69-25.31 173.74-26.1 175.94-26.1L175.94-26.1 181.82-26.1 181.82-19.46 175.94-19.46Q174.89-19.46 173.96-19.07 173.03-18.68 172.35-17.99 171.66-17.31 171.27-16.38 170.88-15.45 170.88-14.4L170.88-14.4ZM234.36-35.01L234.36-10.01Q234.36-7.84 233.54-5.92 232.72-4 231.29-2.58 229.86-1.15 227.95-0.33 226.03 0.49 223.86 0.49L223.86 0.49Q221.9 0.49 220.11-0.2 218.31-0.88 216.87-2.2L216.87-2.2Q215.43-0.88 213.63-0.2 211.82 0.49 209.87 0.49L209.87 0.49Q207.69 0.49 205.78-0.33 203.86-1.15 202.43-2.58 201.01-4 200.19-5.92 199.37-7.84 199.37-10.01L199.37-10.01 199.37-35.01 206.38-35.01 206.38-10.01Q206.38-9.28 206.65-8.63 206.91-7.98 207.39-7.51 207.87-7.03 208.5-6.76 209.14-6.49 209.87-6.49L209.87-6.49Q210.6-6.49 211.23-6.76 211.87-7.03 212.35-7.51 212.82-7.98 213.09-8.63 213.36-9.28 213.36-10.01L213.36-10.01 213.36-35.01 220.37-35.01 220.37-10.01Q220.37-9.28 220.63-8.63 220.9-7.98 221.38-7.51 221.86-7.03 222.49-6.76 223.12-6.49 223.86-6.49L223.86-6.49Q224.59-6.49 225.22-6.76 225.86-7.03 226.33-7.51 226.81-7.98 227.09-8.63 227.37-9.28 227.37-10.01L227.37-10.01 227.37-35.01 234.36-35.01ZM262.45-21.46L249.95-6.4Q250.34-6.27 250.73-6.24 251.12-6.2 251.52-6.2L251.52-6.2Q252.49-6.2 253.4-6.47 254.3-6.74 255.09-7.24 255.89-7.74 256.51-8.46 257.13-9.18 257.52-10.06L257.52-10.06 262.4-5.15Q261.48-3.83 260.27-2.78 259.06-1.73 257.66-1 256.25-0.27 254.7 0.11 253.15 0.49 251.52 0.49L251.52 0.49Q248.76 0.49 246.33-0.54 243.9-1.56 242.08-3.39 240.26-5.22 239.21-7.75 238.16-10.28 238.16-13.31L238.16-13.31Q238.16-16.41 239.21-18.97 240.26-21.53 242.08-23.34 243.9-25.15 246.33-26.15 248.76-27.15 251.52-27.15L251.52-27.15Q253.15-27.15 254.71-26.76 256.28-26.37 257.68-25.63 259.08-24.9 260.3-23.84 261.53-22.78 262.45-21.46L262.45-21.46ZM245.61-9.84L253.37-20.14Q252.91-20.31 252.46-20.36 252-20.41 251.52-20.41L251.52-20.41Q250.15-20.41 248.94-19.91 247.73-19.41 246.84-18.48 245.95-17.55 245.44-16.25 244.92-14.94 244.92-13.31L244.92-13.31Q244.92-12.94 244.96-12.48 245-12.01 245.08-11.54 245.17-11.06 245.29-10.62 245.41-10.18 245.61-9.84L245.61-9.84ZM280.15 0L280.15 0 264.92 0 264.92-6.64 280.15-6.64Q280.83-6.64 281.32-7.13 281.81-7.62 281.81-8.3L281.81-8.3Q281.81-9.01 281.32-9.23 280.83-9.45 280.15-9.45L280.15-9.45 273.22-9.45Q271.48-9.45 269.97-10.11 268.46-10.77 267.33-11.9 266.21-13.04 265.56-14.55 264.92-16.06 264.92-17.8L264.92-17.8Q264.92-19.53 265.56-21.04 266.21-22.56 267.33-23.68 268.46-24.8 269.97-25.45 271.48-26.1 273.22-26.1L273.22-26.1 286.72-26.1 286.72-19.46 273.22-19.46Q272.53-19.46 272.05-18.97 271.56-18.48 271.56-17.8L271.56-17.8Q271.56-17.09 272.05-16.59 272.53-16.09 273.22-16.09L273.22-16.09 280.15-16.09Q281.86-16.09 283.37-15.52 284.89-14.94 286.01-13.92 287.13-12.89 287.79-11.45 288.45-10.01 288.45-8.3L288.45-8.3Q288.45-6.57 287.79-5.07 287.13-3.56 286.01-2.43 284.89-1.29 283.37-0.65 281.86 0 280.15 0ZM330.68-7.01L330.68 0 306.68 0 306.68-35.01 330.68-35.01 330.68-28 313.69-28 313.69-21 325.19-21 325.19-13.99 313.69-13.99 313.69-7.01 330.68-7.01ZM341.54-14.94L341.54 0 334.88 0 334.88-26.15 336.49-26.15 338.69-23.61Q340.3-25.07 342.34-25.87 344.38-26.66 346.6-26.66L346.6-26.66Q348.99-26.66 351.11-25.74 353.24-24.83 354.83-23.23 356.41-21.63 357.33-19.49 358.24-17.36 358.24-14.94L358.24-14.94 358.24 0 351.58 0 351.58-14.94Q351.58-15.97 351.19-16.88 350.8-17.8 350.11-18.48 349.43-19.17 348.53-19.56 347.62-19.95 346.6-19.95L346.6-19.95Q345.55-19.95 344.62-19.56 343.69-19.17 343.01-18.48 342.33-17.8 341.94-16.88 341.54-15.97 341.54-14.94L341.54-14.94ZM388.25-36.55L388.25 0 386.63 0 384.05-3.59Q383.09-2.73 382.03-1.99 380.97-1.25 379.8-0.7 378.63-0.15 377.39 0.17 376.16 0.49 374.89 0.49L374.89 0.49Q372.13 0.49 369.7-0.55 367.27-1.59 365.46-3.43 363.64-5.27 362.59-7.8 361.54-10.33 361.54-13.31L361.54-13.31Q361.54-16.26 362.59-18.8 363.64-21.34 365.46-23.19 367.27-25.05 369.7-26.1 372.13-27.15 374.89-27.15L374.89-27.15Q375.77-27.15 376.71-27 377.65-26.86 378.54-26.53 379.43-26.2 380.21-25.66 381-25.12 381.53-24.34L381.53-24.34 381.53-36.55 388.25-36.55ZM381.53-13.31L381.53-13.31Q381.53-14.67 381.01-15.95 380.48-17.24 379.58-18.23 378.68-19.21 377.47-19.81 376.26-20.41 374.89-20.41L374.89-20.41Q373.52-20.41 372.32-19.92 371.11-19.43 370.22-18.52 369.33-17.6 368.81-16.28 368.3-14.97 368.3-13.31L368.3-13.31Q368.3-11.87 368.81-10.57 369.33-9.28 370.22-8.3 371.11-7.32 372.32-6.76 373.52-6.2 374.89-6.2L374.89-6.2Q376.26-6.2 377.47-6.8 378.68-7.4 379.58-8.39 380.48-9.38 381.01-10.66 381.53-11.94 381.53-13.31ZM400.04-36.55L400.04 0 393.32 0 393.32-36.55 400.04-36.55ZM412.97-33.25L412.97-33.25Q412.97-32.32 412.62-31.52 412.26-30.71 411.65-30.11 411.04-29.52 410.23-29.16 409.41-28.81 408.48-28.81L408.48-28.81Q407.55-28.81 406.73-29.16 405.92-29.52 405.32-30.11 404.72-30.71 404.37-31.52 404.01-32.32 404.01-33.25L404.01-33.25Q404.01-34.16 404.37-34.97 404.72-35.79 405.32-36.39 405.92-36.99 406.73-37.34 407.55-37.7 408.48-37.7L408.48-37.7Q409.41-37.7 410.23-37.34 411.04-36.99 411.65-36.39 412.26-35.79 412.62-34.97 412.97-34.16 412.97-33.25ZM411.83-26.15L411.83 0 405.11 0 405.11-26.15 411.83-26.15ZM439.75-20.95L439.75-20.95 434.87-16.04Q434.5-17.07 433.87-17.88 433.23-18.7 432.44-19.26 431.65-19.82 430.72-20.12 429.79-20.41 428.81-20.41L428.81-20.41Q427.45-20.41 426.24-19.85 425.03-19.29 424.14-18.27 423.25-17.26 422.74-15.87 422.22-14.48 422.22-12.79L422.22-12.79Q422.22-11.43 422.74-10.23 423.25-9.03 424.14-8.13 425.03-7.23 426.24-6.71 427.45-6.2 428.81-6.2L428.81-6.2Q429.79-6.2 430.69-6.47 431.6-6.74 432.39-7.24 433.19-7.74 433.81-8.46 434.43-9.18 434.82-10.06L434.82-10.06 439.7-5.15Q438.78-3.83 437.57-2.78 436.36-1.73 434.96-1 433.55-0.27 432 0.11 430.45 0.49 428.81 0.49L428.81 0.49Q426.06 0.49 423.63-0.55 421.2-1.59 419.38-3.39 417.56-5.2 416.51-7.62 415.46-10.03 415.46-12.79L415.46-12.79Q415.46-15.8 416.51-18.41 417.56-21.02 419.38-22.96 421.2-24.9 423.63-26.03 426.06-27.15 428.81-27.15L428.81-27.15Q430.45-27.15 432.03-26.73 433.6-26.32 435.03-25.52 436.46-24.73 437.67-23.58 438.87-22.44 439.75-20.95ZM449.66-14.94L449.66 0 443 0 443-36.55 449.66-36.55 449.66-25Q450.86-25.9 452.13-26.28 453.4-26.66 454.72-26.66L454.72-26.66Q457.13-26.66 459.26-25.74 461.38-24.83 462.96-23.23 464.53-21.63 465.45-19.49 466.36-17.36 466.36-14.94L466.36-14.94 466.36 0 459.65 0 459.65-14.94 459.7-14.94Q459.7-15.97 459.31-16.88 458.91-17.8 458.23-18.48 457.55-19.17 456.64-19.56 455.74-19.95 454.72-19.95L454.72-19.95Q453.67-19.95 452.74-19.56 451.81-19.17 451.13-18.48 450.44-17.8 450.05-16.88 449.66-15.97 449.66-14.94L449.66-14.94ZM494-21.46L481.5-6.4Q481.89-6.27 482.28-6.24 482.67-6.2 483.06-6.2L483.06-6.2Q484.03-6.2 484.94-6.47 485.84-6.74 486.63-7.24 487.43-7.74 488.05-8.46 488.67-9.18 489.06-10.06L489.06-10.06 493.95-5.15Q493.02-3.83 491.81-2.78 490.6-1.73 489.2-1 487.79-0.27 486.24 0.11 484.69 0.49 483.06 0.49L483.06 0.49Q480.3 0.49 477.87-0.54 475.44-1.56 473.62-3.39 471.8-5.22 470.75-7.75 469.7-10.28 469.7-13.31L469.7-13.31Q469.7-16.41 470.75-18.97 471.8-21.53 473.62-23.34 475.44-25.15 477.87-26.15 480.3-27.15 483.06-27.15L483.06-27.15Q484.69-27.15 486.26-26.76 487.82-26.37 489.22-25.63 490.63-24.9 491.85-23.84 493.07-22.78 494-21.46L494-21.46ZM477.15-9.84L484.91-20.14Q484.45-20.31 484-20.36 483.55-20.41 483.06-20.41L483.06-20.41Q481.69-20.41 480.48-19.91 479.27-19.41 478.38-18.48 477.49-17.55 476.98-16.25 476.47-14.94 476.47-13.31L476.47-13.31Q476.47-12.94 476.5-12.48 476.54-12.01 476.62-11.54 476.71-11.06 476.83-10.62 476.95-10.18 477.15-9.84L477.15-9.84Z" opacity="1" transform="matrix(1,0,0,1,0,0)" fill="#dde6ed" class="wordmark-text-0" data-fill-palette-color="primary" id="text-0"></path></svg></g></svg></g></svg></g></svg></g><g transform="matrix(1,0,0,1,141.31573561124938,0)"><svg viewBox="0 0 112.88852877750122 112.88852877750122" height="112.88852877750122" width="112.88852877750122"><g><svg></svg></g><g id="icon-0"><svg viewBox="0 0 112.88852877750122 112.88852877750122" height="112.88852877750122" width="112.88852877750122"><g><path d="M0 56.444c0-31.173 25.271-56.444 56.444-56.444 31.173 0 56.444 25.271 56.445 56.444 0 31.173-25.271 56.444-56.445 56.445-31.173 0-56.444-25.271-56.444-56.445zM56.444 110.129c29.649 0 53.685-24.036 53.685-53.685 0-29.649-24.036-53.685-53.685-53.685-29.649 0-53.685 24.036-53.685 53.685 0 29.649 24.036 53.685 53.685 53.685z" data-fill-palette-color="accent" fill="#dde6ed" stroke="transparent"></path></g><g transform="matrix(1,0,0,1,22.731171333076915,39.176582579747006)"><svg viewBox="0 0 67.42618611134739 34.5353636180072" height="34.5353636180072" width="67.42618611134739"><g><svg xmlns="http://www.w3.org/2000/svg" xmlns:xlink="http://www.w3.org/1999/xlink" version="1.1" x="0" y="0" viewBox="4 24 82 42" enable-background="new 0 0 90 90" xml:space="preserve" height="34.5353636180072" width="67.42618611134739" class="icon-cg-0" data-fill-palette-color="accent" id="cg-0"><polygon points="71.57,36.655 68,38.73 68,24 4,24 4,66 68,66 68,51.271 71.57,53.345 86,61.69 86,45 86,28.31 " fill="#dde6ed" data-fill-palette-color="accent"></polygon></svg></g></svg></g></svg></g></svg></g><g></g></svg></g><defs></defs></svg><rect width="395.52" height="157.9307354417885" fill="none" stroke="none" visibility="hidden"></rect></g></svg></g></svg>